<svg xmlns="http://www.w3.org/2000/svg" viewBox="0 0 1402 320" width="1402" height="320"><rect x="36.00" y="36.00" width="248.00" height="248.00" rx="58.12" fill="#0B1F33"/><rect x="40.84" y="40.84" width="238.31" height="238.31" rx="53.28" fill="none" stroke="#2E6BF6" stroke-width="2.91"/><g fill="#FFFFFF"><g transform="translate(70.240,187.125) scale(0.14047,-0.14047)"><path d="M499 124H237L195 0H16L270 702H468L722 0H541ZM455 256 368 513 282 256Z"/></g><g transform="translate(173.766,187.125) scale(0.14047,-0.14047)"><path d="M233 565V423H462V291H233V137H492V0H62V702H492V565Z"/></g></g><rect x="70.24" y="206.50" width="179.52" height="8.23" rx="4.12" fill="#2E6BF6"/><rect x="70.24" y="223.94" width="179.52" height="8.23" rx="4.12" fill="#2E6BF6"/><g fill="#9DB4CE"><g transform="translate(336.000,122.000) scale(0.04600,-0.04600)"><path d="M524 695V602H339V0H225V602H39V695Z"/></g><g transform="translate(381.264,122.000) scale(0.04600,-0.04600)"><path d="M630 695V0H516V304H189V0H75V695H189V397H516V695Z"/></g><g transform="translate(433.014,122.000) scale(0.04600,-0.04600)"><path d="M189 603V399H429V306H189V93H459V0H75V696H459V603Z"/></g></g><g fill="#FFFFFF"><g transform="translate(336.000,242.000) scale(0.11800,-0.11800)"><path d="M499 124H237L195 0H16L270 702H468L722 0H541ZM455 256 368 513 282 256Z"/></g><g transform="translate(422.966,242.000) scale(0.11800,-0.11800)"><path d="M274 566Q329 566 374.5 543.0Q420 520 446 481V740H617V0H446V80Q422 40 377.5 16.0Q333 -8 274 -8Q205 -8 149.0 27.5Q93 63 60.5 128.5Q28 194 28 280Q28 366 60.5 431.0Q93 496 149.0 531.0Q205 566 274 566ZM324 417Q273 417 237.5 380.5Q202 344 202 280Q202 216 237.5 178.5Q273 141 324 141Q375 141 410.5 178.0Q446 215 446 279Q446 343 410.5 380.0Q375 417 324 417Z"/></g><g transform="translate(503.088,242.000) scale(0.11800,-0.11800)"><path d="M45 708Q45 748 73.5 774.5Q102 801 147 801Q191 801 219.5 774.5Q248 748 248 708Q248 669 219.5 642.5Q191 616 147 616Q102 616 73.5 642.5Q45 669 45 708ZM233 -72Q233 -175 181.0 -220.5Q129 -266 36 -266H-31V-121H10Q38 -121 50.0 -110.0Q62 -99 62 -74V558H233Z"/></g><g transform="translate(537.780,242.000) scale(0.11800,-0.11800)"><path d="M613 558V0H442V76Q416 39 371.5 16.5Q327 -6 273 -6Q209 -6 160.0 22.5Q111 51 84.0 105.0Q57 159 57 232V558H227V255Q227 199 256.0 168.0Q285 137 334 137Q384 137 413.0 168.0Q442 199 442 255V558Z"/></g><g transform="translate(617.312,242.000) scale(0.11800,-0.11800)"><path d="M32 183H201Q204 154 228.0 136.0Q252 118 287 118Q319 118 336.5 130.5Q354 143 354 163Q354 187 329.0 198.5Q304 210 248 224Q188 238 148.0 253.5Q108 269 79.0 302.5Q50 336 50 393Q50 441 76.5 480.5Q103 520 154.5 543.0Q206 566 277 566Q382 566 442.5 514.0Q503 462 512 376H354Q350 405 328.5 422.0Q307 439 272 439Q242 439 226.0 427.5Q210 416 210 396Q210 372 235.5 360.0Q261 348 315 336Q377 320 416.0 304.5Q455 289 484.5 254.5Q514 220 515 162Q515 113 487.5 74.5Q460 36 408.5 14.0Q357 -8 289 -8Q216 -8 159.0 17.0Q102 42 69.0 85.5Q36 129 32 183Z"/></g><g transform="translate(683.156,242.000) scale(0.11800,-0.11800)"><path d="M373 145V0H286Q193 0 141.0 45.5Q89 91 89 194V416H21V558H89V694H260V558H372V416H260V192Q260 167 272.0 156.0Q284 145 312 145Z"/></g><g transform="translate(731.064,242.000) scale(0.11800,-0.11800)"><path d="M46 708Q46 748 74.5 774.5Q103 801 148 801Q192 801 220.5 774.5Q249 748 249 708Q249 669 220.5 642.5Q192 616 148 616Q103 616 74.5 642.5Q46 669 46 708ZM233 558V0H62V558Z"/></g><g transform="translate(765.874,242.000) scale(0.11800,-0.11800)"><path d="M617 326V0H447V303Q447 359 418.0 390.0Q389 421 340 421Q291 421 262.0 390.0Q233 359 233 303V0H62V558H233V484Q259 521 303.0 542.5Q347 564 402 564Q500 564 558.5 500.5Q617 437 617 326Z"/></g><g transform="translate(845.406,242.000) scale(0.11800,-0.11800)"><path d="M446 479V558H617V1Q617 -76 586.5 -138.5Q556 -201 493.5 -238.0Q431 -275 338 -275Q214 -275 137.0 -216.5Q60 -158 49 -58H218Q226 -90 256.0 -108.5Q286 -127 330 -127Q383 -127 414.5 -96.5Q446 -66 446 1V80Q421 41 377.0 16.5Q333 -8 274 -8Q205 -8 149.0 27.5Q93 63 60.5 128.5Q28 194 28 280Q28 366 60.5 431.0Q93 496 149.0 531.0Q205 566 274 566Q333 566 377.5 542.0Q422 518 446 479ZM324 417Q273 417 237.5 380.5Q202 344 202 280Q202 216 237.5 178.5Q273 141 324 141Q375 141 410.5 178.0Q446 215 446 279Q446 343 410.5 380.0Q375 417 324 417Z"/></g><g transform="translate(950.544,242.000) scale(0.11800,-0.11800)"><path d="M233 565V423H462V291H233V137H492V0H62V702H492V565Z"/></g><g transform="translate(1014.382,242.000) scale(0.11800,-0.11800)"><path d="M617 326V0H447V303Q447 359 418.0 390.0Q389 421 340 421Q291 421 262.0 390.0Q233 359 233 303V0H62V558H233V484Q259 521 303.0 542.5Q347 564 402 564Q500 564 558.5 500.5Q617 437 617 326Z"/></g><g transform="translate(1093.914,242.000) scale(0.11800,-0.11800)"><path d="M373 145V0H286Q193 0 141.0 45.5Q89 91 89 194V416H21V558H89V694H260V558H372V416H260V192Q260 167 272.0 156.0Q284 145 312 145Z"/></g><g transform="translate(1141.822,242.000) scale(0.11800,-0.11800)"><path d="M408 564V383H361Q297 383 265.0 355.5Q233 328 233 259V0H62V558H233V465Q263 511 308.0 537.5Q353 564 408 564Z"/></g><g transform="translate(1192.326,242.000) scale(0.11800,-0.11800)"><path d="M46 708Q46 748 74.5 774.5Q103 801 148 801Q192 801 220.5 774.5Q249 748 249 708Q249 669 220.5 642.5Q192 616 148 616Q103 616 74.5 642.5Q46 669 46 708ZM233 558V0H62V558Z"/></g><g transform="translate(1227.136,242.000) scale(0.11800,-0.11800)"><path d="M585 238H198Q202 186 231.5 158.5Q261 131 304 131Q368 131 393 185H575Q561 130 524.5 86.0Q488 42 433.0 17.0Q378 -8 310 -8Q228 -8 164.0 27.0Q100 62 64.0 127.0Q28 192 28 279Q28 366 63.5 431.0Q99 496 163.0 531.0Q227 566 310 566Q391 566 454.0 532.0Q517 498 552.5 435.0Q588 372 588 288Q588 264 585 238ZM413 333Q413 377 383.0 403.0Q353 429 308 429Q265 429 235.5 404.0Q206 379 199 333Z"/></g><g transform="translate(1299.824,242.000) scale(0.11800,-0.11800)"><path d="M32 183H201Q204 154 228.0 136.0Q252 118 287 118Q319 118 336.5 130.5Q354 143 354 163Q354 187 329.0 198.5Q304 210 248 224Q188 238 148.0 253.5Q108 269 79.0 302.5Q50 336 50 393Q50 441 76.5 480.5Q103 520 154.5 543.0Q206 566 277 566Q382 566 442.5 514.0Q503 462 512 376H354Q350 405 328.5 422.0Q307 439 272 439Q242 439 226.0 427.5Q210 416 210 396Q210 372 235.5 360.0Q261 348 315 336Q377 320 416.0 304.5Q455 289 484.5 254.5Q514 220 515 162Q515 113 487.5 74.5Q460 36 408.5 14.0Q357 -8 289 -8Q216 -8 159.0 17.0Q102 42 69.0 85.5Q36 129 32 183Z"/></g></g><rect x="950.54" y="268.00" width="415.12" height="12" rx="6.0" fill="#2E6BF6"/><rect x="950.54" y="292.00" width="415.12" height="12" rx="6.0" fill="#2E6BF6"/></svg>